# xmcd CD database file
#
# Track frame offsets:
#	150
#	19882
#	41925
#
# Disc length: 820 seconds
#
# Revision: 0
# Processed by: cddbd v1.5.1PL0 Copyright (c) Steve Scherf et al.
# Submitted via: CDex 1.51
#
DISCID=22033203
DTITLE=EPO - きっと−光のありか−
DYEAR=1993
DGENRE=JPop
TTITLE0=きっと−光のありか−
TTITLE1=遠い窓　近い窓
TTITLE2=きっと−光のありか−（カラオケ）
EXTD=YEAR: 1993
EXTT0=
EXTT1=
EXTT2=
PLAYORDER=
